{
  "source": "C:\\Users\\Peter\\Desktop\\stuff\\MIUN\\quantitative_research\\video_compression\\videos\\HEVC_CLASS_B\\Cactus_1920x1080_50.y4m",
  "output": "C:\\Users\\Peter\\Desktop\\stuff\\MIUN\\quantitative_research\\video_compression\\compressed_videos\\HEVC_CLASS_B\\h264\\1.5\\Cactus_1920x1080_50_h264.mp4",
  "codec": "h264",
  "ok": "Input #0, yuv4mpegpipe, from 'C:\\Users\\Peter\\Desktop\\stuff\\MIUN\\quantitative_research\\video_compression\\videos\\HEVC_CLASS_B\\Cactus_1920x1080_50.y4m':\n  Duration: 00:00:10.00, start: 0.000000, bitrate: 1244162 kb/s\n  Stream #0:0: Video: rawvideo (I420 / 0x30323449), yuv420p(progressive), 1920x1080, 50 fps, 50 tbr, 50 tbn\n[out#0/mp4 @ 0000025ec4fea640] Codec AVOption b:a (set bitrate (in bits/s)) has not been used for any stream. The most likely reason is either wrong type (e.g. a video option with no video streams) or that it is a private option of some decoder which was not actually used for any stream.\nStream mapping:\n  Stream #0:0 -> #0:0 (rawvideo (native) -> h264 (libx264))\nPress [q] to stop, [?] for help\n[libx264 @ 0000025ec4fecac0] using cpu capabilities: MMX2 SSE2Fast SSSE3 SSE4.2 AVX FMA3 BMI2 AVX2\n[libx264 @ 0000025ec4fecac0] profile High, level 5.0, 4:2:0, 8-bit\n[libx264 @ 0000025ec4fecac0] 264 - core 165 r3222 b35605a - H.264/MPEG-4 AVC codec - Copyleft 2003-2025 - http://www.videolan.org/x264.html - options: cabac=1 ref=5 deblock=1:0:0 analyse=0x3:0x113 me=hex subme=8 psy=1 psy_rd=1.00:0.00 mixed_ref=1 me_range=16 chroma_me=1 trellis=2 8x8dct=1 cqm=0 deadzone=21,11 fast_pskip=1 chroma_qp_offset=-2 threads=18 lookahead_threads=3 sliced_threads=0 nr=0 decimate=1 interlaced=0 bluray_compat=0 constrained_intra=0 bframes=3 b_pyramid=2 b_adapt=1 b_bias=0 direct=3 weightb=1 open_gop=0 weightp=2 keyint=250 keyint_min=25 scenecut=40 intra_refresh=0 rc_lookahead=50 rc=cbr mbtree=1 bitrate=1500 ratetol=1.0 qcomp=0.60 qpmin=0 qpmax=69 qpstep=4 vbv_maxrate=1500 vbv_bufsize=1500 nal_hrd=none filler=0 ip_ratio=1.40 aq=1:1.00\nOutput #0, mp4, to 'C:\\Users\\Peter\\Desktop\\stuff\\MIUN\\quantitative_research\\video_compression\\compressed_videos\\HEVC_CLASS_B\\h264\\1.5\\Cactus_1920x1080_50_h264.mp4':\n  Metadata:\n    encoder         : Lavf62.3.100\n  Stream #0:0: Video: h264 (avc1 / 0x31637661), yuv420p(tv, progressive), 1920x1080, q=2-31, 1500 kb/s, 50 fps, 12800 tbn\n    Metadata:\n      encoder         : Lavc62.11.100 libx264\n    Side data:\n      cpb: bitrate max/min/avg: 1500000/0/1500000 buffer size: 1500000 vbv_delay: N/A\nframe=    0 fps=0.0 q=0.0 size=       0KiB time=N/A bitrate=N/A speed=N/A elapsed=0:00:00.51    \nframe=   11 fps= 10 q=47.0 size=       0KiB time=00:00:00.04 bitrate=   9.6kbits/s speed=0.037x elapsed=0:00:01.08    \nframe=   44 fps= 26 q=45.0 size=       0KiB time=00:00:00.76 bitrate=   0.5kbits/s speed=0.445x elapsed=0:00:01.70    \nframe=   76 fps= 33 q=44.0 size=       0KiB time=00:00:01.40 bitrate=   0.3kbits/s speed=0.604x elapsed=0:00:02.31    \nframe=  104 fps= 36 q=44.0 size=     256KiB time=00:00:02.04 bitrate=1028.2kbits/s speed=0.707x elapsed=0:00:02.88    \nframe=  132 fps= 39 q=44.0 size=     256KiB time=00:00:02.60 bitrate= 806.7kbits/s speed=0.761x elapsed=0:00:03.41    \nframe=  164 fps= 41 q=44.0 size=     256KiB time=00:00:03.16 bitrate= 663.8kbits/s speed=0.798x elapsed=0:00:03.95    \nframe=  200 fps= 44 q=44.0 size=     512KiB time=00:00:03.88 bitrate=1081.1kbits/s speed=0.847x elapsed=0:00:04.58    \nframe=  233 fps= 45 q=44.0 size=     512KiB time=00:00:04.60 bitrate= 911.9kbits/s speed=0.888x elapsed=0:00:05.17    \nframe=  250 fps= 43 q=45.0 size=     512KiB time=00:00:04.96 bitrate= 845.7kbits/s speed=0.863x elapsed=0:00:05.74    \nframe=  282 fps= 45 q=44.0 size=     768KiB time=00:00:05.60 bitrate=1123.5kbits/s speed=0.888x elapsed=0:00:06.30    \nframe=  318 fps= 46 q=44.0 size=     768KiB time=00:00:06.24 bitrate=1008.3kbits/s speed=0.904x elapsed=0:00:06.90    \nframe=  350 fps= 47 q=44.0 size=    1024KiB time=00:00:06.92 bitrate=1212.3kbits/s speed=0.922x elapsed=0:00:07.50    \nframe=  384 fps= 47 q=44.0 size=    1024KiB time=00:00:07.60 bitrate=1103.8kbits/s speed=0.937x elapsed=0:00:08.10    \nframe=  416 fps= 48 q=44.0 size=    1280KiB time=00:00:08.26 bitrate=1269.5kbits/s speed=0.95x elapsed=0:00:08.69    \nframe=  455 fps= 49 q=43.0 size=    1280KiB time=00:00:09.00 bitrate=1165.1kbits/s speed=0.977x elapsed=0:00:09.21    \nframe=  491 fps= 50 q=-1.0 size=    1536KiB time=00:00:09.78 bitrate=1286.6kbits/s speed=   1x elapsed=0:00:09.78    \n[mp4 @ 0000025ec4feb740] Starting second pass: moving the moov atom to the beginning of the file\n[out#0/mp4 @ 0000025ec4fea640] video:1598KiB audio:0KiB subtitle:0KiB other streams:0KiB global headers:0KiB muxing overhead: 0.419769%\nframe=  500 fps= 51 q=-1.0 Lsize=    1605KiB time=00:00:09.96 bitrate=1320.3kbits/s speed=1.01x elapsed=0:00:09.88    \n[libx264 @ 0000025ec4fecac0] frame I:2     Avg QP:40.24  size: 41578\n[libx264 @ 0000025ec4fecac0] frame P:126   Avg QP:43.14  size:  6760\n[libx264 @ 0000025ec4fecac0] frame B:372   Avg QP:46.47  size:  1885\n[libx264 @ 0000025ec4fecac0] consecutive B-frames:  0.8%  0.0%  0.0% 99.2%\n[libx264 @ 0000025ec4fecac0] mb I  I16..4: 36.9% 55.1%  8.0%\n[libx264 @ 0000025ec4fecac0] mb P  I16..4:  2.9%  1.6%  0.0%  P16..4: 23.3%  2.0%  3.1%  0.0%  0.0%    skip:67.0%\n[libx264 @ 0000025ec4fecac0] mb B  I16..4:  0.1%  0.1%  0.0%  B16..8: 19.8%  0.2%  0.0%  direct: 0.2%  skip:79.5%  L0:35.4% L1:64.2% BI: 0.3%\n[libx264 @ 0000025ec4fecac0] 8x8 transform intra:40.3% inter:91.3%\n[libx264 @ 0000025ec4fecac0] direct mvs  spatial:97.3% temporal:2.7%\n[libx264 @ 0000025ec4fecac0] coded y,uvDC,uvAC intra: 16.4% 34.1% 6.5% inter: 1.0% 2.1% 0.0%\n[libx264 @ 0000025ec4fecac0] i16 v,h,dc,p: 30% 27%  7% 37%\n[libx264 @ 0000025ec4fecac0] i8 v,h,dc,ddl,ddr,vr,hd,vl,hu:  9%  5% 14% 13% 16% 14% 12% 10%  8%\n[libx264 @ 0000025ec4fecac0] i4 v,h,dc,ddl,ddr,vr,hd,vl,hu: 14%  6% 11% 13% 15% 14%  9%  9% 10%\n[libx264 @ 0000025ec4fecac0] i8c dc,h,v,p: 59% 22% 12%  7%\n[libx264 @ 0000025ec4fecac0] Weighted P-Frames: Y:0.0% UV:0.0%\n[libx264 @ 0000025ec4fecac0] ref P L0: 61.4%  7.3% 18.9%  5.3%  7.1%\n[libx264 @ 0000025ec4fecac0] ref B L0: 87.1%  8.7%  3.1%  1.0%\n[libx264 @ 0000025ec4fecac0] ref B L1: 96.4%  3.6%\n[libx264 @ 0000025ec4fecac0] kb/s:1308.87\n",
  "seconds": 10.183043241500854,
  "probe_out": {}
}